<?xml version="1.0" encoding="utf-8"?>
<svg width="57px" height="44px" viewBox="0 0 57 44" version="1.1" xmlns:xlink="http://www.w3.org/1999/xlink" xmlns="http://www.w3.org/2000/svg">
  <desc>Created with Lunacy</desc>
  <g id="Group-28">
    <path d="M0 2.09599L0 0L27 7.18435e-14L27 21.6074M0 27L0 24.9942" transform="translate(8 0)" id="Rectangle-3" fill="none" stroke="#FFFFFF" stroke-width="2" stroke-linecap="round" stroke-linejoin="round" />
    <path d="M-1.42109e-14 20L5.29301e-15 15L8.26726 10.9794L15.0727 2.13163e-14L22 2.13163e-14" transform="matrix(-1 0 0 1 57 6)" id="Rectangle-3" fill="none" stroke="#FFFFFF" stroke-width="2" stroke-linecap="round" stroke-linejoin="round" />
    <path d="M6.5 13C10.0899 13 13 10.0899 13 6.5C13 2.91015 10.0899 0 6.5 0C2.91015 0 0 2.91015 0 6.5C0 10.0899 2.91015 13 6.5 13Z" transform="translate(38 31)" id="Oval-Copy" fill="none" stroke="#FFFFFF" stroke-width="2" stroke-linecap="round" stroke-linejoin="round" />
    <path d="M6.5 13C10.0899 13 13 10.0899 13 6.5C13 2.91015 10.0899 0 6.5 0C2.91015 0 0 2.91015 0 6.5C0 10.0899 2.91015 13 6.5 13Z" transform="translate(15 31)" id="Oval-Copy-2" fill="none" stroke="#FFFFFF" stroke-width="2" stroke-linecap="round" stroke-linejoin="round" />
    <path d="M0.0833333 1L13.9167 1" transform="translate(0 6)" id="Line" fill="none" stroke="#FFFFFF" stroke-width="2" stroke-linecap="round" stroke-linejoin="round" />
    <path d="M0 1L11 1" transform="translate(3 13)" id="Line-Copy-2" fill="none" stroke="#FFFFFF" stroke-width="2" stroke-linecap="round" stroke-linejoin="round" />
    <path d="M0 1L9 1" transform="translate(5 18)" id="Line-Copy-3" fill="none" stroke="#FFFFFF" stroke-width="2" stroke-linecap="round" stroke-linejoin="round" />
    <path d="M43.2213 0L49 0L49 13.6666M0 11L0 0L2.71597 1.42117e-14L7.19136 5.21097e-14M19.9044 0L29.1503 0" transform="matrix(1 0 0 -1 8 38)" id="Rectangle-3" fill="none" stroke="#FFFFFF" stroke-width="2" stroke-linecap="round" stroke-linejoin="round" />
  </g>
</svg>